<?xml version="1.0" encoding="UTF-8" ?>
<svg version="1.1" width="24" height="24" xmlns="http://www.w3.org/2000/svg" shape-rendering="crispEdges">
<rect x="2" y="0" width="10" height="1" fill="#342972" />
<rect x="1" y="1" width="2" height="2" fill="#443594" />
<rect x="3" y="1" width="9" height="1" fill="#342972" />
<rect x="0" y="2" width="1" height="20" fill="#342972" />
<rect x="3" y="2" width="1" height="2" fill="#342972" />
<rect x="4" y="2" width="8" height="2" fill="#443594" />
<rect x="1" y="3" width="2" height="1" fill="#342972" />
<rect x="1" y="4" width="1" height="17" fill="#342972" />
<rect x="2" y="4" width="4" height="2" fill="#443594" />
<rect x="6" y="4" width="6" height="2" fill="#715FD1" />
<rect x="2" y="6" width="2" height="14" fill="#443594" />
<rect x="4" y="6" width="4" height="2" fill="#715FD1" />
<rect x="4" y="8" width="2" height="10" fill="#715FD1" />
<rect x="6" y="16" width="2" height="4" fill="#715FD1" />
<rect x="4" y="18" width="2" height="4" fill="#443594" />
<rect x="8" y="18" width="4" height="2" fill="#715FD1" />
<rect x="2" y="20" width="2" height="1" fill="#342972" />
<rect x="6" y="20" width="6" height="2" fill="#443594" />
<rect x="1" y="21" width="2" height="2" fill="#443594" />
<rect x="3" y="21" width="1" height="3" fill="#342972" />
<rect x="4" y="22" width="8" height="2" fill="#342972" />
<rect x="2" y="23" width="1" height="1" fill="#342972" />
</svg>