<?xml version="1.0" encoding="UTF-8" ?>
<svg version="1.1" width="24" height="24" xmlns="http://www.w3.org/2000/svg" shape-rendering="crispEdges">
<rect x="1" y="0" width="6" height="2" fill="#354394" />
<rect x="7" y="0" width="6" height="2" fill="#4152B4" />
<rect x="13" y="0" width="10" height="2" fill="#5D6DC4" />
<rect x="0" y="1" width="1" height="6" fill="#354394" />
<rect x="23" y="1" width="1" height="11" fill="#5D6DC4" />
<rect x="1" y="2" width="2" height="1" fill="#354394" />
<rect x="3" y="2" width="18" height="20" fill="#3C4CA7" />
<rect x="21" y="2" width="2" height="1" fill="#5D6DC4" />
<rect x="1" y="3" width="1" height="4" fill="#354394" />
<rect x="2" y="3" width="1" height="18" fill="#3C4CA7" />
<rect x="21" y="3" width="1" height="18" fill="#3C4CA7" />
<rect x="22" y="3" width="1" height="9" fill="#5D6DC4" />
<rect x="0" y="7" width="2" height="8" fill="#2E3A80" />
<rect x="22" y="12" width="2" height="6" fill="#4152B4" />
<rect x="0" y="15" width="2" height="8" fill="#293472" />
<rect x="22" y="18" width="2" height="5" fill="#354394" />
<rect x="2" y="21" width="1" height="3" fill="#293472" />
<rect x="21" y="21" width="1" height="3" fill="#354394" />
<rect x="3" y="22" width="8" height="2" fill="#293472" />
<rect x="11" y="22" width="7" height="2" fill="#2E3A80" />
<rect x="18" y="22" width="3" height="2" fill="#354394" />
<rect x="1" y="23" width="1" height="1" fill="#293472" />
<rect x="22" y="23" width="1" height="1" fill="#354394" />
</svg>