<?xml version="1.0" encoding="UTF-8" ?>
<svg version="1.1" width="24" height="24" xmlns="http://www.w3.org/2000/svg" shape-rendering="crispEdges">
<rect x="1" y="0" width="6" height="2" fill="#946035" />
<rect x="7" y="0" width="6" height="2" fill="#B47541" />
<rect x="13" y="0" width="10" height="2" fill="#C48B5D" />
<rect x="0" y="1" width="1" height="6" fill="#946035" />
<rect x="23" y="1" width="1" height="11" fill="#C48B5D" />
<rect x="1" y="2" width="2" height="1" fill="#946035" />
<rect x="3" y="2" width="18" height="20" fill="#A76C3C" />
<rect x="21" y="2" width="2" height="1" fill="#C48B5D" />
<rect x="1" y="3" width="1" height="4" fill="#946035" />
<rect x="2" y="3" width="1" height="18" fill="#A76C3C" />
<rect x="21" y="3" width="1" height="18" fill="#A76C3C" />
<rect x="22" y="3" width="1" height="9" fill="#C48B5D" />
<rect x="0" y="7" width="2" height="8" fill="#80532E" />
<rect x="22" y="12" width="2" height="6" fill="#B47541" />
<rect x="0" y="15" width="2" height="8" fill="#724A29" />
<rect x="22" y="18" width="2" height="5" fill="#946035" />
<rect x="2" y="21" width="1" height="3" fill="#724A29" />
<rect x="21" y="21" width="1" height="3" fill="#946035" />
<rect x="3" y="22" width="8" height="2" fill="#724A29" />
<rect x="11" y="22" width="7" height="2" fill="#80532E" />
<rect x="18" y="22" width="3" height="2" fill="#946035" />
<rect x="1" y="23" width="1" height="1" fill="#724A29" />
<rect x="22" y="23" width="1" height="1" fill="#946035" />
</svg>